AmstelvarA2-Italic_XUCS45.ufo
<glyph name="D" format="2">
  <advance width="1251"/>
  <unicode hex="0044"/>
  <anchor x="506.0" y="0" name="bottom"/>
  <anchor x="268.0" y="754.0" name="center"/>
  <anchor x="647.0" y="1500" name="top"/>
  <anchor x="1251" y="0" name="liga"/>
  <outline>
    <contour>
      <point x="-245" y="0" type="line"/>
      <point x="-226" y="100" type="line"/>
      <point x="-30" y="125" type="line"/>
      <point x="88" y="754" type="line"/>
      <point x="197" y="1362" type="line"/>
      <point x="-6" y="1386" type="line"/>
      <point x="7" y="1500" type="line"/>
      <point x="605" y="1500" type="line" smooth="yes"/>
      <point x="938" y="1500"/>
      <point x="1266" y="1087"/>
      <point x="1198" y="755" type="qcurve" smooth="yes"/>
      <point x="1128" y="410"/>
      <point x="657" y="0"/>
      <point x="297" y="0" type="qcurve" smooth="yes"/>
    </contour>
    <contour>
      <point x="133" y="128" type="line"/>
      <point x="163" y="122"/>
      <point x="295" y="106"/>
      <point x="363" y="106" type="qcurve" smooth="yes"/>
      <point x="625" y="106"/>
      <point x="955" y="440"/>
      <point x="1017" y="762" type="qcurve" smooth="yes"/>
      <point x="1076" y="1065"/>
      <point x="830" y="1379"/>
      <point x="590" y="1379" type="qcurve" smooth="yes"/>
      <point x="519" y="1379"/>
      <point x="395" y="1367"/>
      <point x="362" y="1362" type="qcurve"/>
      <point x="248" y="754" type="line"/>
    </contour>
  </outline>
</glyph>
<glyph name="E" format="2">
  <advance width="965"/>
  <unicode hex="0045"/>
  <anchor x="350" y="0" name="bottom"/>
  <anchor x="659" y="0" name="ogonek"/>
  <anchor x="621" y="1500" name="top"/>
  <anchor x="-142" y="1500" name="tonos"/>
  <outline>
    <contour>
      <point x="-234" y="0" type="line"/>
      <point x="-215" y="100" type="line"/>
      <point x="-29" y="127" type="line"/>
      <point x="99" y="783" type="line"/>
      <point x="208" y="1362" type="line"/>
      <point x="15" y="1386" type="line"/>
      <point x="28" y="1500" type="line"/>
      <point x="1005" y="1500" type="line"/>
      <point x="967" y="1152" type="line"/>
      <point x="868" y="1152" type="line"/>
      <point x="861" y="1382" type="line"/>
      <point x="408" y="1382" type="line"/>
      <point x="373" y="1362" type="line"/>
      <point x="258" y="794" type="line"/>
      <point x="139" y="136" type="line"/>
      <point x="154" y="108" type="line"/>
      <point x="690" y="108" type="line"/>
      <point x="781" y="378" type="line"/>
      <point x="881" y="378" type="line"/>
      <point x="802" y="0" type="line"/>
    </contour>
    <contour>
      <point x="175" y="776" type="line"/>
      <point x="193" y="858" type="line"/>
      <point x="611" y="865" type="line"/>
      <point x="670" y="1024" type="line"/>
      <point x="780" y="1024" type="line"/>
      <point x="695" y="588" type="line"/>
      <point x="595" y="588" type="line"/>
      <point x="599" y="749" type="line"/>
    </contour>
  </outline>
</glyph>
<glyph name="G" format="2">
  <advance width="1274"/>
  <unicode hex="0047"/>
  <anchor x="626" y="0" name="bottom"/>
  <anchor x="866" y="1492" name="top"/>
  <outline>
    <contour>
      <point x="56" y="839" type="qcurve" smooth="yes"/>
      <point x="143" y="1173"/>
      <point x="679" y="1562"/>
      <point x="965" y="1523" type="qcurve" smooth="yes"/>
      <point x="1032" y="1514"/>
      <point x="1156" y="1477"/>
      <point x="1189" y="1461" type="qcurve" smooth="yes"/>
      <point x="1230" y="1441" type="line"/>
      <point x="1272" y="1420" type="line"/>
      <point x="1210" y="1076" type="line"/>
      <point x="1102" y="1076" type="line"/>
      <point x="1113" y="1290" type="line"/>
      <point x="1081" y="1322"/>
      <point x="968" y="1381"/>
      <point x="902" y="1389" type="qcurve" smooth="yes"/>
      <point x="690" y="1416"/>
      <point x="320" y="1151"/>
      <point x="243" y="842" type="qcurve" smooth="yes"/>
      <point x="170" y="552"/>
      <point x="334" y="155"/>
      <point x="530" y="121" type="qcurve" smooth="yes"/>
      <point x="664" y="98"/>
      <point x="906" y="154"/>
      <point x="1006" y="223" type="qcurve"/>
      <point x="1079" y="586" type="line"/>
      <point x="910" y="611" type="line"/>
      <point x="922" y="712" type="line"/>
      <point x="1372" y="712" type="line"/>
      <point x="1358" y="610" type="line"/>
      <point x="1238" y="585" type="line"/>
      <point x="1158" y="162" type="line"/>
      <point x="1046" y="109" type="line"/>
      <point x="933" y="41"/>
      <point x="657" y="-37"/>
      <point x="481" y="-16" type="qcurve" smooth="yes"/>
      <point x="213" y="16"/>
      <point x="-26" y="523"/>
    </contour>
  </outline>
</glyph>
<glyph name="H" format="2">
  <advance width="1235"/>
  <unicode hex="0048"/>
  <anchor x="440" y="0" name="bottom"/>
  <anchor x="653" y="1079" name="center"/>
  <anchor x="783" y="1500" name="top"/>
  <anchor x="-87" y="1500" name="tonos"/>
  <anchor x="1232" y="100" name="cy_descender"/>
  <outline>
    <contour>
      <point x="-233" y="0" type="line"/>
      <point x="-214" y="100" type="line"/>
      <point x="-27" y="120" type="line"/>
      <point x="112" y="806" type="line"/>
      <point x="211" y="1362" type="line"/>
      <point x="17" y="1385" type="line"/>
      <point x="29" y="1500" type="line"/>
      <point x="586" y="1500" type="line"/>
      <point x="564" y="1385" type="line"/>
      <point x="380" y="1362" type="line"/>
      <point x="268" y="790" type="line"/>
      <point x="142" y="120" type="line"/>
      <point x="333" y="100" type="line"/>
      <point x="324" y="0" type="line"/>
    </contour>
    <contour>
      <point x="178" y="738" type="line"/>
      <point x="199" y="855" type="line"/>
      <point x="642" y="851" type="line"/>
      <point x="1088" y="855" type="line"/>
      <point x="1067" y="738" type="line"/>
      <point x="623" y="742" type="line"/>
    </contour>
    <contour>
      <point x="657" y="0" type="line"/>
      <point x="676" y="100" type="line"/>
      <point x="863" y="120" type="line"/>
      <point x="997" y="788" type="line"/>
      <point x="1101" y="1362" type="line"/>
      <point x="907" y="1385" type="line"/>
      <point x="919" y="1500" type="line"/>
      <point x="1475" y="1500" type="line"/>
      <point x="1453" y="1385" type="line"/>
      <point x="1270" y="1362" type="line"/>
      <point x="1153" y="771" type="line"/>
      <point x="1032" y="120" type="line"/>
      <point x="1222" y="100" type="line"/>
      <point x="1213" y="0" type="line"/>
    </contour>
  </outline>
</glyph>
<glyph name="K" format="2">
  <advance width="976"/>
  <unicode hex="004B"/>
  <anchor x="439" y="0" name="bottom"/>
  <anchor x="728" y="1500" name="top"/>
  <anchor x="1033" y="100" name="kai_tail"/>
  <outline>
    <contour>
      <point x="-234" y="0" type="line"/>
      <point x="-225" y="100" type="line"/>
      <point x="-29" y="125" type="line"/>
      <point x="94" y="754" type="line"/>
      <point x="208" y="1362" type="line"/>
      <point x="15" y="1386" type="line"/>
      <point x="28" y="1500" type="line"/>
      <point x="570" y="1500" type="line"/>
      <point x="557" y="1386" type="line"/>
      <point x="375" y="1362" type="line"/>
      <point x="254" y="754" type="line"/>
      <point x="143" y="124" type="line"/>
      <point x="327" y="100" type="line"/>
      <point x="318" y="0" type="line"/>
    </contour>
    <contour>
      <point x="135" y="540" type="line"/>
      <point x="163" y="693" type="line"/>
      <point x="857" y="1348" type="line"/>
      <point x="753" y="1386" type="line"/>
      <point x="766" y="1500" type="line"/>
      <point x="1186" y="1500" type="line"/>
      <point x="1173" y="1386" type="line"/>
      <point x="1012" y="1348" type="line"/>
    </contour>
    <contour>
      <point x="421" y="874" type="line"/>
      <point x="549" y="993" type="line"/>
      <point x="879" y="125" type="line"/>
      <point x="1033" y="100" type="line"/>
      <point x="1024" y="0" type="line"/>
      <point x="557" y="0" type="line"/>
      <point x="566" y="100" type="line"/>
      <point x="707" y="124" type="line"/>
    </contour>
  </outline>
</glyph>
<glyph name="M" format="2">
  <advance width="1566"/>
  <unicode hex="004D"/>
  <anchor x="605" y="0" name="bottom"/>
  <anchor x="885" y="1500" name="top"/>
  <outline>
    <contour>
      <point x="-234" y="0" type="line"/>
      <point x="-225" y="100" type="line"/>
      <point x="-34" y="115" type="line"/>
      <point x="89" y="754" type="line"/>
      <point x="203" y="1372" type="line"/>
      <point x="20" y="1386" type="line"/>
      <point x="33" y="1500" type="line"/>
      <point x="453" y="1500" type="line"/>
      <point x="572" y="786" type="line"/>
      <point x="652" y="327" type="line"/>
      <point x="668" y="213" type="line"/>
      <point x="678" y="213" type="line"/>
      <point x="737" y="327" type="line"/>
      <point x="1009" y="820" type="line"/>
      <point x="1385" y="1500" type="line"/>
      <point x="1806" y="1500" type="line"/>
      <point x="1785" y="1386" type="line"/>
      <point x="1598" y="1372" type="line"/>
      <point x="1480" y="754" type="line"/>
      <point x="1361" y="115" type="line"/>
      <point x="1553" y="100" type="line"/>
      <point x="1544" y="0" type="line"/>
      <point x="985" y="0" type="line"/>
      <point x="994" y="100" type="line"/>
      <point x="1197" y="115" type="line"/>
      <point x="1320" y="754" type="line"/>
      <point x="1417" y="1244" type="line"/>
      <point x="1443" y="1363" type="line"/>
      <point x="1434" y="1365" type="line"/>
      <point x="1376" y="1258" type="line"/>
      <point x="1094" y="758" type="line"/>
      <point x="662" y="-8" type="line"/>
      <point x="551" y="-8" type="line"/>
      <point x="425" y="750" type="line"/>
      <point x="336" y="1249" type="line"/>
      <point x="322" y="1357" type="line"/>
      <point x="311" y="1355" type="line"/>
      <point x="293" y="1235" type="line"/>
      <point x="197" y="754" type="line"/>
      <point x="78" y="115" type="line"/>
      <point x="274" y="100" type="line"/>
      <point x="255" y="0" type="line"/>
    </contour>
  </outline>
</glyph>
<glyph name="N" format="2">
  <advance width="1160"/>
  <unicode hex="004E"/>
  <anchor x="482" y="0" name="bottom"/>
  <anchor x="726" y="1500" name="top"/>
  <anchor x="883" y="0" name="engtail"/>
  <anchor x="1274" y="0" name="liga"/>
  <outline>
    <contour>
      <point x="-234" y="0" type="line"/>
      <point x="-225" y="100" type="line"/>
      <point x="-29" y="125" type="line"/>
      <point x="94" y="754" type="line"/>
      <point x="208" y="1362" type="line"/>
      <point x="25" y="1386" type="line"/>
      <point x="38" y="1500" type="line"/>
      <point x="435" y="1500" type="line"/>
      <point x="661" y="820" type="line"/>
      <point x="800" y="418" type="line"/>
      <point x="832" y="317" type="line"/>
      <point x="843" y="319" type="line"/>
      <point x="866" y="440" type="line"/>
      <point x="929" y="754" type="line"/>
      <point x="1044" y="1362" type="line"/>
      <point x="843" y="1386" type="line"/>
      <point x="859" y="1500" type="line"/>
      <point x="1363" y="1500" type="line"/>
      <point x="1347" y="1386" type="line"/>
      <point x="1153" y="1362" type="line"/>
      <point x="1035" y="754" type="line"/>
      <point x="883" y="0" type="line"/>
      <point x="772" y="0" type="line"/>
      <point x="521" y="748" type="line"/>
      <point x="349" y="1220" type="line"/>
      <point x="313" y="1324" type="line"/>
      <point x="303" y="1321" type="line"/>
      <point x="284" y="1199" type="line"/>
      <point x="199" y="754" type="line"/>
      <point x="80" y="125" type="line"/>
      <point x="271" y="100" type="line"/>
      <point x="262" y="0" type="line"/>
    </contour>
  </outline>
</glyph>
<glyph name="W" format="2">
  <advance width="1661"/>
  <unicode hex="0057"/>
  <anchor x="649" y="0" name="bottom"/>
  <anchor x="939" y="1500" name="top"/>
  <outline>
    <contour>
      <point x="18" y="1386" type="line"/>
      <point x="42" y="1500" type="line"/>
      <point x="531" y="1500" type="line"/>
      <point x="507" y="1386" type="line"/>
      <point x="349" y="1366" type="line"/>
      <point x="359" y="803" type="line"/>
      <point x="368" y="400" type="line"/>
      <point x="368" y="271" type="line"/>
      <point x="385" y="271" type="line"/>
      <point x="455" y="400" type="line"/>
      <point x="653" y="737" type="line"/>
      <point x="871" y="1121" type="line"/>
      <point x="862" y="1373" type="line"/>
      <point x="720" y="1394" type="line"/>
      <point x="741" y="1500" type="line"/>
      <point x="1206" y="1500" type="line"/>
      <point x="1185" y="1386" type="line"/>
      <point x="1032" y="1373" type="line"/>
      <point x="1038" y="800" type="line"/>
      <point x="1052" y="400" type="line"/>
      <point x="1052" y="271" type="line"/>
      <point x="1069" y="271" type="line"/>
      <point x="1135" y="400" type="line"/>
      <point x="1353" y="803" type="line"/>
      <point x="1636" y="1372" type="line"/>
      <point x="1443" y="1386" type="line"/>
      <point x="1456" y="1500" type="line"/>
      <point x="1943" y="1500" type="line"/>
      <point x="1930" y="1385" type="line"/>
      <point x="1772" y="1367" type="line"/>
      <point x="1447" y="760" type="line"/>
      <point x="1021" y="-8" type="line"/>
      <point x="910" y="-8" type="line"/>
      <point x="881" y="805" type="line"/>
      <point x="879" y="934" type="line"/>
      <point x="869" y="934" type="line"/>
      <point x="802" y="805" type="line"/>
      <point x="335" y="-8" type="line"/>
      <point x="231" y="-8" type="line"/>
      <point x="207" y="740" type="line"/>
      <point x="181" y="1366" type="line"/>
    </contour>
  </outline>
</glyph>
<glyph name="OE" format="2">
  <advance width="1917"/>
  <unicode hex="0152"/>
  <outline>
    <contour>
      <point x="57" y="846" type="qcurve" smooth="yes"/>
      <point x="142" y="1172"/>
      <point x="646" y="1534"/>
      <point x="922" y="1519" type="qcurve"/>
      <point x="1071" y="1511"/>
      <point x="1292" y="1500"/>
      <point x="1353" y="1500" type="qcurve" smooth="yes"/>
      <point x="1956" y="1500" type="line"/>
      <point x="1919" y="1152" type="line"/>
      <point x="1820" y="1152" type="line"/>
      <point x="1813" y="1382" type="line"/>
      <point x="1360" y="1382" type="line"/>
      <point x="1325" y="1362" type="line"/>
      <point x="1210" y="783" type="line"/>
      <point x="1088" y="135" type="line"/>
      <point x="1126" y="108" type="line"/>
      <point x="1642" y="108" type="line"/>
      <point x="1733" y="378" type="line"/>
      <point x="1833" y="378" type="line"/>
      <point x="1744" y="0" type="line"/>
      <point x="1009" y="0" type="line" smooth="yes"/>
      <point x="916" y="0"/>
      <point x="636" y="-34"/>
      <point x="526" y="-17" type="qcurve" smooth="yes"/>
      <point x="241" y="27"/>
      <point x="-31" y="508"/>
    </contour>
    <contour>
      <point x="244" y="849" type="qcurve" smooth="yes"/>
      <point x="154" y="491"/>
      <point x="425" y="97"/>
      <point x="651" y="97" type="qcurve" smooth="yes"/>
      <point x="792" y="97"/>
      <point x="873" y="112"/>
      <point x="923" y="127" type="qcurve"/>
      <point x="1051" y="783" type="line"/>
      <point x="1160" y="1363" type="line"/>
      <point x="1118" y="1370"/>
      <point x="960" y="1386"/>
      <point x="925" y="1388" type="qcurve" smooth="yes"/>
      <point x="686" y="1401"/>
      <point x="322" y="1158"/>
    </contour>
    <contour>
      <point x="1128" y="768" type="line"/>
      <point x="1142" y="844" type="line"/>
      <point x="1571" y="854" type="line"/>
      <point x="1626" y="1003" type="line"/>
      <point x="1726" y="1003" type="line"/>
      <point x="1641" y="567" type="line"/>
      <point x="1541" y="567" type="line"/>
      <point x="1551" y="738" type="line"/>
    </contour>
  </outline>
</glyph>
<glyph name="Schwa" format="2">
  <advance width="1237"/>
  <unicode hex="018F"/>
  <outline>
    <contour>
      <point x="388" y="131" type="qcurve" smooth="yes"/>
      <point x="321" y="136"/>
      <point x="208" y="192"/>
      <point x="189" y="256" type="qcurve" smooth="yes"/>
      <point x="171" y="318"/>
      <point x="205" y="377"/>
      <point x="261" y="378" type="qcurve" smooth="yes"/>
      <point x="522" y="384" type="line"/>
      <point x="993" y="377" type="line"/>
      <point x="1055" y="493" type="line"/>
      <point x="47" y="493" type="line"/>
      <point x="0" y="466" type="line"/>
      <point x="-8" y="422"/>
      <point x="-13" y="359"/>
      <point x="-13" y="327" type="qcurve" smooth="yes"/>
      <point x="-13" y="191"/>
      <point x="175" y="17"/>
      <point x="325" y="-3" type="qcurve" smooth="yes"/>
      <point x="600" y="-40"/>
      <point x="1137" y="355"/>
      <point x="1224" y="681" type="qcurve" smooth="yes"/>
      <point x="1309" y="997"/>
      <point x="1067" y="1504"/>
      <point x="799" y="1536" type="qcurve" smooth="yes"/>
      <point x="597" y="1560"/>
      <point x="261" y="1436"/>
      <point x="137" y="1258" type="qcurve"/>
      <point x="160" y="1183" type="line"/>
      <point x="184" y="1169" type="line"/>
      <point x="274" y="1305"/>
      <point x="559" y="1428"/>
      <point x="750" y="1399" type="qcurve" smooth="yes"/>
      <point x="946" y="1369"/>
      <point x="1110" y="968"/>
      <point x="1037" y="678" type="qcurve"/>
      <point x="982" y="424"/>
      <point x="669" y="119"/>
    </contour>
  </outline>
</glyph>
<glyph name="Gamma" format="2">
  <advance width="809"/>
  <unicode hex="0393"/>
  <anchor x="511" y="1500" name="top"/>
  <anchor x="181" y="760" name="center"/>
  <outline>
    <contour>
      <point x="-229" y="0" type="line"/>
      <point x="-210" y="100" type="line"/>
      <point x="-23" y="127" type="line"/>
      <point x="100" y="760" type="line"/>
      <point x="213" y="1362" type="line"/>
      <point x="30" y="1386" type="line"/>
      <point x="43" y="1500" type="line"/>
      <point x="930" y="1500" type="line"/>
      <point x="886" y="1101" type="line"/>
      <point x="787" y="1101" type="line"/>
      <point x="778" y="1392" type="line"/>
      <point x="405" y="1392" type="line"/>
      <point x="379" y="1372" type="line"/>
      <point x="260" y="760" type="line"/>
      <point x="140" y="122" type="line"/>
      <point x="350" y="100" type="line"/>
      <point x="331" y="0" type="line"/>
    </contour>
  </outline>
</glyph>
<glyph name="Xi" format="2">
  <advance width="1210"/>
  <unicode hex="039E"/>
  <outline>
    <contour>
      <point x="144" y="1132" type="line"/>
      <point x="216" y="1500" type="line"/>
      <point x="1326" y="1500" type="line"/>
      <point x="1273" y="1132" type="line"/>
      <point x="1173" y="1132" type="line"/>
      <point x="1179" y="1353" type="line"/>
      <point x="750" y="1373" type="line"/>
      <point x="326" y="1353" type="line"/>
      <point x="258" y="1132" type="line"/>
    </contour>
    <contour>
      <point x="187" y="509" type="line"/>
      <point x="275" y="964" type="line"/>
      <point x="381" y="964" type="line"/>
      <point x="379" y="815" type="line"/>
      <point x="649" y="803" type="line"/>
      <point x="922" y="815" type="line"/>
      <point x="978" y="964" type="line"/>
      <point x="1084" y="964" type="line"/>
      <point x="996" y="509" type="line"/>
      <point x="899" y="509" type="line"/>
      <point x="903" y="666" type="line"/>
      <point x="624" y="677" type="line"/>
      <point x="340" y="666" type="line"/>
      <point x="284" y="509" type="line"/>
    </contour>
    <contour>
      <point x="-63" y="0" type="line"/>
      <point x="-27" y="398" type="line"/>
      <point x="83" y="398" type="line"/>
      <point x="84" y="140" type="line"/>
      <point x="516" y="120" type="line"/>
      <point x="940" y="140" type="line"/>
      <point x="1031" y="398" type="line"/>
      <point x="1141" y="398" type="line"/>
      <point x="1057" y="0" type="line"/>
    </contour>
  </outline>
</glyph>
<glyph name="Pi" format="2">
  <advance width="1167"/>
  <unicode hex="03A0"/>
  <outline>
    <contour>
      <point x="-233" y="0" type="line"/>
      <point x="-214" y="100" type="line"/>
      <point x="-27" y="120" type="line"/>
      <point x="112" y="806" type="line"/>
      <point x="211" y="1362" type="line"/>
      <point x="17" y="1385" type="line"/>
      <point x="29" y="1500" type="line"/>
      <point x="1450" y="1500" type="line"/>
      <point x="1428" y="1385" type="line"/>
      <point x="1245" y="1362" type="line"/>
      <point x="1128" y="771" type="line"/>
      <point x="1007" y="120" type="line"/>
      <point x="1197" y="100" type="line"/>
      <point x="1188" y="0" type="line"/>
      <point x="632" y="0" type="line"/>
      <point x="651" y="100" type="line"/>
      <point x="838" y="120" type="line"/>
      <point x="972" y="788" type="line"/>
      <point x="1076" y="1362" type="line"/>
      <point x="1046" y="1382" type="line"/>
      <point x="415" y="1382" type="line"/>
      <point x="380" y="1362" type="line"/>
      <point x="268" y="790" type="line"/>
      <point x="142" y="120" type="line"/>
      <point x="333" y="100" type="line"/>
      <point x="324" y="0" type="line"/>
    </contour>
  </outline>
</glyph>
<glyph name="Lje" format="2">
  <advance width="1662"/>
  <unicode hex="0409"/>
  <outline>
    <contour>
      <point x="1249" y="788" type="qcurve" smooth="yes"/>
      <point x="1056" y="788" type="line"/>
      <point x="1045" y="774" type="line"/>
      <point x="926" y="128" type="line"/>
      <point x="950" y="108" type="line"/>
      <point x="1128" y="108" type="line" smooth="yes"/>
      <point x="1296" y="108"/>
      <point x="1498" y="251"/>
      <point x="1523" y="420" type="qcurve" smooth="yes"/>
      <point x="1547" y="585"/>
      <point x="1406" y="788"/>
    </contour>
    <contour>
      <point x="379" y="1362" type="line"/>
      <point x="190" y="1385" type="line"/>
      <point x="202" y="1500" type="line"/>
      <point x="1372" y="1500" type="line"/>
      <point x="1350" y="1385" type="line"/>
      <point x="1162" y="1362" type="line"/>
      <point x="1072" y="912" type="line"/>
      <point x="1077" y="901" type="line"/>
      <point x="1253" y="901" type="line" smooth="yes"/>
      <point x="1510" y="901"/>
      <point x="1735" y="627"/>
      <point x="1703" y="413" type="qcurve" smooth="yes"/>
      <point x="1675" y="226"/>
      <point x="1366" y="0"/>
      <point x="1156" y="0" type="qcurve" smooth="yes"/>
      <point x="554" y="0" type="line"/>
      <point x="573" y="100" type="line"/>
      <point x="755" y="120" type="line"/>
      <point x="876" y="729" type="line"/>
      <point x="992" y="1362" type="line"/>
      <point x="962" y="1382" type="line"/>
      <point x="560" y="1382" type="line"/>
      <point x="525" y="1362" type="line"/>
      <point x="386" y="714" type="line" smooth="yes"/>
      <point x="313" y="372"/>
      <point x="123" y="-17"/>
      <point x="-68" y="-17" type="qcurve" smooth="yes"/>
      <point x="-115" y="-17"/>
      <point x="-152" y="-10"/>
      <point x="-179" y="0" type="qcurve"/>
      <point x="-141" y="167" type="line"/>
      <point x="-118" y="159"/>
      <point x="-83" y="154"/>
      <point x="-60" y="154" type="qcurve" smooth="yes"/>
      <point x="42" y="154"/>
      <point x="183" y="445"/>
      <point x="243" y="723" type="qcurve" smooth="yes"/>
    </contour>
  </outline>
</glyph>
<glyph name="Tshe" format="2">
  <advance width="1643"/>
  <unicode hex="040B"/>
  <outline>
    <contour>
      <point x="60" y="1099" type="line"/>
      <point x="143" y="1500" type="line"/>
      <point x="1240" y="1500" type="line"/>
      <point x="1159" y="1119" type="line"/>
      <point x="1059" y="1119" type="line"/>
      <point x="1085" y="1382" type="line"/>
      <point x="747" y="1382" type="line"/>
      <point x="733" y="1362" type="line"/>
      <point x="613" y="754" type="line"/>
      <point x="492" y="125" type="line"/>
      <point x="684" y="100" type="line"/>
      <point x="676" y="0" type="line"/>
      <point x="117" y="0" type="line"/>
      <point x="125" y="100" type="line"/>
      <point x="325" y="125" type="line"/>
      <point x="454" y="754" type="line"/>
      <point x="570" y="1362" type="line"/>
      <point x="566" y="1382" type="line"/>
      <point x="252" y="1382" type="line"/>
      <point x="160" y="1099" type="line"/>
    </contour>
    <contour>
      <point x="1175" y="426" type="line" smooth="yes"/>
      <point x="1211" y="607"/>
      <point x="1069" y="764"/>
      <point x="916" y="764" type="qcurve" smooth="yes"/>
      <point x="819" y="764"/>
      <point x="623" y="730"/>
      <point x="521" y="690" type="qcurve"/>
      <point x="542" y="799" type="line"/>
      <point x="640" y="839"/>
      <point x="830" y="881"/>
      <point x="950" y="881" type="qcurve" smooth="yes"/>
      <point x="1186" y="881"/>
      <point x="1380" y="650"/>
      <point x="1338" y="419" type="qcurve" smooth="yes"/>
      <point x="1284" y="120" type="line"/>
      <point x="1478" y="100" type="line"/>
      <point x="1469" y="0" type="line"/>
      <point x="1091" y="0" type="line"/>
    </contour>
  </outline>
</glyph>
<glyph name="Zhe" format="2">
  <advance width="1720"/>
  <unicode hex="0416"/>
  <anchor x="761" y="0" name="bottom"/>
  <anchor x="1052" y="1500" name="top"/>
  <anchor x="1787" y="100" name="cy_descender"/>
  <outline>
    <contour>
      <point x="512" y="0" type="line"/>
      <point x="521" y="100" type="line"/>
      <point x="705" y="125" type="line"/>
      <point x="828" y="754" type="line"/>
      <point x="942" y="1362" type="line"/>
      <point x="760" y="1386" type="line"/>
      <point x="773" y="1500" type="line"/>
      <point x="1304" y="1500" type="line"/>
      <point x="1291" y="1386" type="line"/>
      <point x="1109" y="1362" type="line"/>
      <point x="988" y="754" type="line"/>
      <point x="877" y="125" type="line"/>
      <point x="1061" y="100" type="line"/>
      <point x="1052" y="0" type="line"/>
    </contour>
    <contour>
      <point x="907" y="738" type="line"/>
      <point x="930" y="855" type="line"/>
      <point x="1167" y="854" type="line"/>
      <point x="1591" y="1348" type="line"/>
      <point x="1487" y="1386" type="line"/>
      <point x="1500" y="1500" type="line"/>
      <point x="1920" y="1500" type="line"/>
      <point x="1907" y="1386" type="line"/>
      <point x="1746" y="1348" type="line"/>
      <point x="1244" y="781" type="line"/>
      <point x="1176" y="739" type="line"/>
    </contour>
    <contour>
      <point x="1133" y="752" type="line"/>
      <point x="1249" y="865" type="line"/>
      <point x="1623" y="125" type="line"/>
      <point x="1777" y="100" type="line"/>
      <point x="1768" y="0" type="line"/>
      <point x="1298" y="0" type="line"/>
      <point x="1307" y="100" type="line"/>
      <point x="1448" y="125" type="line"/>
    </contour>
    <contour>
      <point x="907" y="738" type="line"/>
      <point x="639" y="739" type="line"/>
      <point x="592" y="781" type="line"/>
      <point x="297" y="1348" type="line"/>
      <point x="151" y="1386" type="line"/>
      <point x="165" y="1500" type="line"/>
      <point x="577" y="1500" type="line"/>
      <point x="563" y="1386" type="line"/>
      <point x="444" y="1348" type="line"/>
      <point x="692" y="854" type="line"/>
      <point x="930" y="855" type="line"/>
    </contour>
    <contour>
      <point x="687" y="752" type="line"/>
      <point x="145" y="125" type="line"/>
      <point x="276" y="100" type="line"/>
      <point x="266" y="0" type="line"/>
      <point x="-212" y="0" type="line"/>
      <point x="-202" y="100" type="line"/>
      <point x="-38" y="125" type="line"/>
      <point x="606" y="865" type="line"/>
    </contour>
  </outline>
</glyph>
<glyph name="Icyr" format="2">
  <advance width="1208"/>
  <unicode hex="0418"/>
  <anchor x="486" y="0" name="bottom"/>
  <anchor x="773" y="1500" name="top"/>
  <outline>
    <contour>
      <point x="61" y="152" type="line"/>
      <point x="96" y="328" type="line"/>
      <point x="594" y="778" type="line"/>
      <point x="1193" y="1336" type="line"/>
      <point x="1164" y="1159" type="line"/>
      <point x="663" y="706" type="line"/>
    </contour>
    <contour>
      <point x="-233" y="0" type="line"/>
      <point x="-214" y="100" type="line"/>
      <point x="-27" y="120" type="line"/>
      <point x="112" y="806" type="line"/>
      <point x="211" y="1362" type="line"/>
      <point x="17" y="1385" type="line"/>
      <point x="29" y="1500" type="line"/>
      <point x="586" y="1500" type="line"/>
      <point x="564" y="1385" type="line"/>
      <point x="380" y="1362" type="line"/>
      <point x="268" y="790" type="line"/>
      <point x="142" y="120" type="line"/>
      <point x="333" y="100" type="line"/>
      <point x="324" y="0" type="line"/>
    </contour>
    <contour>
      <point x="672" y="0" type="line"/>
      <point x="691" y="100" type="line"/>
      <point x="878" y="120" type="line"/>
      <point x="1012" y="788" type="line"/>
      <point x="1116" y="1362" type="line"/>
      <point x="922" y="1385" type="line"/>
      <point x="934" y="1500" type="line"/>
      <point x="1490" y="1500" type="line"/>
      <point x="1468" y="1385" type="line"/>
      <point x="1285" y="1362" type="line"/>
      <point x="1168" y="771" type="line"/>
      <point x="1047" y="120" type="line"/>
      <point x="1237" y="100" type="line"/>
      <point x="1228" y="0" type="line"/>
    </contour>
  </outline>
</glyph>
<glyph name="Ka" format="2">
  <advance width="991"/>
  <unicode hex="041A"/>
  <anchor x="389" y="0" name="bottom"/>
  <anchor x="607" y="1500" name="top"/>
  <anchor x="1058" y="100" name="cy_descender"/>
  <outline>
    <contour>
      <point x="-229" y="0" type="line"/>
      <point x="-220" y="100" type="line"/>
      <point x="-24" y="125" type="line"/>
      <point x="99" y="754" type="line"/>
      <point x="213" y="1362" type="line"/>
      <point x="20" y="1386" type="line"/>
      <point x="33" y="1500" type="line"/>
      <point x="575" y="1500" type="line"/>
      <point x="562" y="1386" type="line"/>
      <point x="380" y="1362" type="line"/>
      <point x="258" y="754" type="line"/>
      <point x="148" y="125" type="line"/>
      <point x="332" y="100" type="line"/>
      <point x="323" y="0" type="line"/>
    </contour>
    <contour>
      <point x="176" y="738" type="line"/>
      <point x="197" y="855" type="line"/>
      <point x="438" y="854" type="line"/>
      <point x="862" y="1348" type="line"/>
      <point x="758" y="1386" type="line"/>
      <point x="771" y="1500" type="line"/>
      <point x="1191" y="1500" type="line"/>
      <point x="1178" y="1386" type="line"/>
      <point x="1017" y="1348" type="line"/>
      <point x="515" y="781" type="line"/>
      <point x="447" y="739" type="line"/>
    </contour>
    <contour>
      <point x="404" y="752" type="line"/>
      <point x="520" y="865" type="line"/>
      <point x="894" y="125" type="line"/>
      <point x="1048" y="100" type="line"/>
      <point x="1039" y="0" type="line"/>
      <point x="572" y="0" type="line"/>
      <point x="581" y="100" type="line"/>
      <point x="719" y="125" type="line"/>
    </contour>
  </outline>
</glyph>
<glyph name="Ucyr" format="2">
  <advance width="1068"/>
  <unicode hex="0423"/>
  <anchor x="614" y="0" name="bottom"/>
  <anchor x="724" y="1500" name="top"/>
  <outline>
    <contour>
      <point x="615" y="425" type="qcurve" smooth="yes"/>
      <point x="919" y="930" type="line"/>
      <point x="1193" y="1369" type="line"/>
      <point x="1341" y="1386" type="line"/>
      <point x="1354" y="1500" type="line"/>
      <point x="892" y="1500" type="line"/>
      <point x="879" y="1386" type="line"/>
      <point x="1053" y="1368" type="line"/>
      <point x="824" y="972" type="line"/>
      <point x="624" y="640" type="line"/>
      <point x="573" y="549" type="line"/>
      <point x="565" y="549" type="line"/>
      <point x="543" y="643" type="line"/>
      <point x="463" y="933" type="line"/>
      <point x="352" y="1361" type="line"/>
      <point x="505" y="1386" type="line"/>
      <point x="518" y="1500" type="line"/>
      <point x="40" y="1500" type="line"/>
      <point x="27" y="1386" type="line"/>
      <point x="169" y="1370" type="line"/>
      <point x="310" y="891" type="line"/>
      <point x="454" y="369" type="line"/>
      <point x="390" y="283" type="line" smooth="yes"/>
      <point x="343" y="219"/>
      <point x="214" y="154"/>
      <point x="138" y="154" type="qcurve" smooth="yes"/>
      <point x="111" y="154"/>
      <point x="65" y="159"/>
      <point x="42" y="167" type="qcurve"/>
      <point x="7" y="0" type="line"/>
      <point x="34" y="-10"/>
      <point x="87" y="-17"/>
      <point x="120" y="-17" type="qcurve" smooth="yes"/>
      <point x="276" y="-17"/>
      <point x="503" y="239"/>
    </contour>
  </outline>
</glyph>
<glyph name="Sha" format="2">
  <advance width="1758"/>
  <unicode hex="0428"/>
  <anchor x="1797" y="100" name="cy_descender"/>
  <outline>
    <contour>
      <point x="905" y="108" type="line"/>
      <point x="1394" y="108" type="line"/>
      <point x="1429" y="128" type="line"/>
      <point x="1562" y="788" type="line"/>
      <point x="1666" y="1362" type="line"/>
      <point x="1481" y="1385" type="line"/>
      <point x="1493" y="1500" type="line"/>
      <point x="2040" y="1500" type="line"/>
      <point x="2018" y="1385" type="line"/>
      <point x="1835" y="1362" type="line"/>
      <point x="1718" y="771" type="line"/>
      <point x="1597" y="120" type="line"/>
      <point x="1787" y="100" type="line"/>
      <point x="1778" y="0" type="line"/>
      <point x="-233" y="0" type="line"/>
      <point x="-214" y="100" type="line"/>
      <point x="-27" y="120" type="line"/>
      <point x="112" y="806" type="line"/>
      <point x="211" y="1362" type="line"/>
      <point x="17" y="1385" type="line"/>
      <point x="29" y="1500" type="line"/>
      <point x="586" y="1500" type="line"/>
      <point x="564" y="1385" type="line"/>
      <point x="380" y="1362" type="line"/>
      <point x="268" y="790" type="line"/>
      <point x="144" y="128" type="line"/>
      <point x="188" y="108" type="line"/>
      <point x="654" y="108" type="line"/>
      <point x="702" y="128" type="line"/>
      <point x="839" y="806" type="line"/>
      <point x="938" y="1362" type="line"/>
      <point x="754" y="1385" type="line"/>
      <point x="766" y="1500" type="line"/>
      <point x="1313" y="1500" type="line"/>
      <point x="1291" y="1385" type="line"/>
      <point x="1107" y="1362" type="line"/>
      <point x="995" y="790" type="line"/>
      <point x="871" y="129" type="line"/>
    </contour>
  </outline>
</glyph>
<glyph name="Ecyr" format="2">
  <advance width="1048"/>
  <unicode hex="042D"/>
  <anchor x="386" y="0" name="bottom"/>
  <anchor x="600" y="1500" name="top"/>
  <outline>
    <contour>
      <point x="277" y="1294" type="qcurve"/>
      <point x="199" y="1073" type="line"/>
      <point x="91" y="1073" type="line"/>
      <point x="165" y="1423" type="line"/>
      <point x="195" y="1438" type="line"/>
      <point x="226" y="1453" type="line"/>
      <point x="291" y="1487"/>
      <point x="446" y="1527"/>
      <point x="542" y="1527" type="qcurve" smooth="yes"/>
      <point x="870" y="1527"/>
      <point x="1182" y="1025"/>
      <point x="1098" y="656" type="qcurve" smooth="yes"/>
      <point x="1013" y="283"/>
      <point x="521" y="-51"/>
      <point x="233" y="-17" type="qcurve" smooth="yes"/>
      <point x="151" y="-7"/>
      <point x="18" y="32"/>
      <point x="-34" y="58" type="qcurve"/>
      <point x="-60" y="72" type="line"/>
      <point x="-84" y="86" type="line"/>
      <point x="-21" y="451" type="line"/>
      <point x="87" y="451" type="line"/>
      <point x="76" y="224" type="line"/>
      <point x="107" y="184"/>
      <point x="215" y="124"/>
      <point x="263" y="117" type="qcurve" smooth="yes"/>
      <point x="505" y="81"/>
      <point x="842" y="352"/>
      <point x="911" y="666" type="qcurve" smooth="yes"/>
      <point x="984" y="997"/>
      <point x="777" y="1389"/>
      <point x="525" y="1389" type="qcurve" smooth="yes"/>
      <point x="453" y="1389"/>
      <point x="327" y="1343"/>
    </contour>
    <contour>
      <point x="1033" y="811" type="line"/>
      <point x="1014" y="729" type="line"/>
      <point x="438" y="722" type="line"/>
      <point x="379" y="563" type="line"/>
      <point x="269" y="563" type="line"/>
      <point x="354" y="999" type="line"/>
      <point x="454" y="999" type="line"/>
      <point x="450" y="838" type="line"/>
    </contour>
  </outline>
</glyph>
<glyph name="Kaverticalstrokecyr" format="2">
  <advance width="1249"/>
  <unicode hex="049C"/>
  <outline>
    <contour>
      <point x="663" y="1185" type="line"/>
      <point x="497" y="329" type="line"/>
      <point x="356" y="329" type="line"/>
      <point x="522" y="1185" type="line"/>
    </contour>
    <contour>
      <point x="-229" y="0" type="line"/>
      <point x="-220" y="100" type="line"/>
      <point x="-24" y="125" type="line"/>
      <point x="99" y="754" type="line"/>
      <point x="213" y="1362" type="line"/>
      <point x="20" y="1386" type="line"/>
      <point x="33" y="1500" type="line"/>
      <point x="575" y="1500" type="line"/>
      <point x="562" y="1386" type="line"/>
      <point x="380" y="1362" type="line"/>
      <point x="259" y="754" type="line"/>
      <point x="148" y="125" type="line"/>
      <point x="332" y="100" type="line"/>
      <point x="323" y="0" type="line"/>
    </contour>
    <contour>
      <point x="506" y="739" type="line"/>
      <point x="527" y="856" type="line"/>
      <point x="728" y="854" type="line"/>
      <point x="1112" y="1348" type="line"/>
      <point x="1008" y="1386" type="line"/>
      <point x="1021" y="1500" type="line"/>
      <point x="1441" y="1500" type="line"/>
      <point x="1428" y="1386" type="line"/>
      <point x="1267" y="1348" type="line"/>
      <point x="805" y="781" type="line"/>
      <point x="737" y="739" type="line"/>
    </contour>
    <contour>
      <point x="694" y="752" type="line"/>
      <point x="810" y="865" type="line"/>
      <point x="1144" y="125" type="line"/>
      <point x="1298" y="100" type="line"/>
      <point x="1289" y="0" type="line"/>
      <point x="819" y="0" type="line"/>
      <point x="828" y="100" type="line"/>
      <point x="969" y="125" type="line"/>
    </contour>
  </outline>
</glyph>
<glyph name="Zhe.bgr" format="2">
  <advance width="1689"/>
  <outline>
    <contour>
      <point x="491" y="0" type="line"/>
      <point x="500" y="100" type="line"/>
      <point x="684" y="125" type="line"/>
      <point x="807" y="754" type="line"/>
      <point x="921" y="1362" type="line"/>
      <point x="739" y="1386" type="line"/>
      <point x="752" y="1500" type="line"/>
      <point x="1283" y="1500" type="line"/>
      <point x="1270" y="1386" type="line"/>
      <point x="1088" y="1362" type="line"/>
      <point x="967" y="754" type="line"/>
      <point x="856" y="125" type="line"/>
      <point x="1040" y="100" type="line"/>
      <point x="1031" y="0" type="line"/>
    </contour>
    <contour>
      <point x="1137" y="867" type="line"/>
      <point x="1263" y="990" type="line"/>
      <point x="1592" y="125" type="line"/>
      <point x="1746" y="100" type="line"/>
      <point x="1737" y="0" type="line"/>
      <point x="1270" y="0" type="line"/>
      <point x="1279" y="100" type="line"/>
      <point x="1420" y="125" type="line"/>
    </contour>
    <contour>
      <point x="252" y="0" type="line"/>
      <point x="-215" y="0" type="line"/>
      <point x="-202" y="100" type="line"/>
      <point x="-48" y="125" type="line"/>
      <point x="600" y="991" type="line"/>
      <point x="688" y="868" type="line"/>
      <point x="134" y="125" type="line"/>
      <point x="265" y="100" type="line"/>
    </contour>
    <contour>
      <point x="848" y="543" type="line"/>
      <point x="273" y="1348" type="line"/>
      <point x="113" y="1386" type="line"/>
      <point x="126" y="1500" type="line"/>
      <point x="556" y="1500" type="line"/>
      <point x="543" y="1386" type="line"/>
      <point x="420" y="1348" type="line"/>
      <point x="874" y="691" type="line"/>
      <point x="1570" y="1348" type="line"/>
      <point x="1466" y="1386" type="line"/>
      <point x="1479" y="1500" type="line"/>
      <point x="1899" y="1500" type="line"/>
      <point x="1886" y="1386" type="line"/>
      <point x="1725" y="1348" type="line"/>
    </contour>
  </outline>
</glyph>
<glyph name="brevecomb-stack.case" format="2">
  <anchor x="195" y="1500" name="_top"/>
  <anchor x="262" y="1946" name="top"/>
  <outline>
    <contour>
      <point x="524" y="1969" type="qcurve"/>
      <point x="615" y="1909" type="line"/>
      <point x="568" y="1798"/>
      <point x="363" y="1642"/>
      <point x="213" y="1642" type="qcurve" smooth="yes"/>
      <point x="83" y="1642"/>
      <point x="-101" y="1795"/>
      <point x="-123" y="1902" type="qcurve"/>
      <point x="-10" y="1963" type="line"/>
      <point x="9" y="1901"/>
      <point x="133" y="1798"/>
      <point x="229" y="1798" type="qcurve" smooth="yes"/>
      <point x="321" y="1798"/>
      <point x="471" y="1893"/>
    </contour>
  </outline>
</glyph>
<glyph name="hornU" format="2">
  <advance width="1194"/>
  <anchor x="1218" y="1500" name="topright"/>
  <anchor x="746" y="1500" name="top"/>
  <outline>
    <contour>
      <point x="17" y="1386" type="line"/>
      <point x="31" y="1500" type="line"/>
      <point x="572" y="1500" type="line"/>
      <point x="558" y="1386" type="line"/>
      <point x="383" y="1362" type="line"/>
      <point x="265" y="794" type="line" smooth="yes"/>
      <point x="246" y="702"/>
      <point x="210" y="454"/>
      <point x="210" y="374" type="qcurve" smooth="yes"/>
      <point x="210" y="268"/>
      <point x="358" y="104"/>
      <point x="486" y="104" type="qcurve" smooth="yes"/>
      <point x="653" y="104"/>
      <point x="863" y="277"/>
      <point x="906" y="494" type="qcurve" smooth="yes"/>
      <point x="965" y="794" type="line"/>
      <point x="1063" y="1362" type="line"/>
      <point x="871" y="1386" type="line"/>
      <point x="885" y="1500" type="line"/>
      <point x="1225" y="1500" type="line"/>
      <point x="1089" y="794" type="line"/>
      <point x="1034" y="493" type="line" smooth="yes"/>
      <point x="982" y="209"/>
      <point x="694" y="-22"/>
      <point x="467" y="-22" type="qcurve" smooth="yes"/>
      <point x="268" y="-22"/>
      <point x="32" y="178"/>
      <point x="35" y="364" type="qcurve" smooth="yes"/>
      <point x="36" y="444"/>
      <point x="69" y="615"/>
      <point x="103" y="794" type="qcurve" smooth="yes"/>
      <point x="210" y="1362" type="line"/>
    </contour>
  </outline>
</glyph>
